#N canvas 57 54 1863 1026 10;
#X obj 445 20 cnv 15 165 55 empty empty empty 20 12 0 14 -257985 -66577
0;
#X text 454 45 http://hellocatfood.com;
#N canvas 758 59 931 998 pixelinfo 0;
#X obj 29 112 f;
#X obj 69 112 + 1;
#X obj 29 184 %;
#X floatatom 29 226 5 0 0 0 - - -;
#X floatatom 129 266 5 0 0 0 - - -;
#X obj 129 112 f;
#X obj 129 184 %;
#X obj 29 366 /;
#X obj 44 346 r w;
#X obj 129 366 /;
#X obj 144 346 r h;
#X obj 29 388 s x;
#X obj 129 388 s y;
#X obj 44 154 r w;
#X obj 144 154 r h;
#X obj 29 62 r bang;
#X obj 59 308 sel 0;
#X obj 169 112 + 1;
#X msg 129 92 0;
#X msg 29 92 0;
#X text 163 266 curren line;
#X text 63 226 curren column;
#X obj 400 300 cnv 15 150 60 empty empty empty 20 12 0 14 -262130 -66577
0;
#X floatatom 409 306 5 0 0 0 - - -;
#X floatatom 409 336 5 0 0 0 - - -;
#X text 443 336 current line;
#X text 443 306 current column;
#X connect 0 0 1 0;
#X connect 0 0 2 0;
#X connect 1 0 0 1;
#X connect 2 0 3 0;
#X connect 2 0 16 0;
#X connect 3 0 7 0;
#X connect 3 0 23 0;
#X connect 4 0 9 0;
#X connect 4 0 24 0;
#X connect 5 0 6 0;
#X connect 5 0 17 0;
#X connect 6 0 4 0;
#X connect 7 0 11 0;
#X connect 8 0 7 1;
#X connect 9 0 12 0;
#X connect 10 0 9 1;
#X connect 13 0 2 1;
#X connect 14 0 6 1;
#X connect 15 0 0 0;
#X connect 16 0 5 0;
#X connect 17 0 5 1;
#X connect 18 0 5 0;
#X connect 19 0 0 0;
#X coords 0 -1 1 1 150 60 1 400 300;
#X restore 284 20 pd pixelinfo;
#N canvas 1058 339 450 300 start 0;
#X obj 150 23 cnv 15 130 90 empty empty empty 20 12 0 14 -260097 -66577
0;
#X obj 156 30 tgl 30 0 empty empty stop+save 40 15 0 10 -4034 -1 -1
1 1;
#X floatatom 43 157 5 0 0 0 - - -;
#X obj 16 199 s bang;
#X obj 16 177 metro;
#X obj 157 72 knob 32 32 100 0.001 0 0 empty empty empty 0 -8 0 8 -262144
-262144 -1 2368 1;
#X msg 16 249 \; pd dsp 1;
#X obj 16 229 loadbang;
#X text 197 65 speed;
#X obj 113 137 s record;
#X floatatom 198 91 5 0 0 0 - - -;
#X obj 286 62 sel 1 0;
#X msg 286 84 label stop+save;
#X msg 305 104 label start+record;
#X msg 89 248 100;
#X obj 50 18 inlet start;
#X obj 60 48 inlet speed;
#X obj 86 117 t f f;
#X connect 1 0 11 0;
#X connect 1 0 17 0;
#X connect 2 0 4 1;
#X connect 4 0 3 0;
#X connect 5 0 2 0;
#X connect 5 0 10 0;
#X connect 7 0 6 0;
#X connect 7 0 14 0;
#X connect 11 0 12 0;
#X connect 11 1 13 0;
#X connect 12 0 1 0;
#X connect 13 0 1 0;
#X connect 14 0 5 0;
#X connect 15 0 1 0;
#X connect 16 0 5 0;
#X connect 17 0 4 0;
#X connect 17 1 9 0;
#X coords 0 -1 1 1 130 93 1 150 20;
#X restore 156 20 pd start;
#X obj 45 20 cnv 15 100 60 empty empty empty 20 12 0 14 -228856 -66577
0;
#N canvas 57 87 450 300 gemwin 0;
#X obj 132 136 gemwin;
#X obj 67 89 outlet;
#X obj 67 10 inlet;
#X obj 67 41 route create;
#X msg 67 70 set destroy;
#X msg 142 68 set create;
#X msg 132 112 create \, 1;
#X msg 198 112 destroy;
#X obj 251 112 r pixelcolor;
#X connect 2 0 3 0;
#X connect 3 0 4 0;
#X connect 3 0 6 0;
#X connect 3 1 5 0;
#X connect 3 1 7 0;
#X connect 4 0 1 0;
#X connect 5 0 1 0;
#X connect 6 0 0 0;
#X connect 7 0 0 0;
#X connect 8 0 0 0;
#X restore 50 59 pd gemwin;
#X msg 50 40 destroy;
#X text 46 19 create window;
#X text 454 26 antonio roberts 2014;
#X obj 305 960 dac~;
#X obj 305 930 *~ 0.1;
#X obj 304 846 +~;
#X obj 304 868 +~;
#X obj 333 844 hsl 128 30 0 1 0 0 empty empty empty -2 -8 0 10 -260097
-1 -1 12700 1;
#X msg 330 879 \$1 30;
#X obj 330 901 line;
#X obj 304 890 +~;
#X obj 45 400 loadimage;
#X obj 305 910 /~ 4;
#X obj 98 953 gemhead;
#X obj 98 1005 separator;
#X obj 98 1048 colorRGB;
#X obj 678 400 loadimage;
#X obj 256 400 loadimage;
#X obj 467 400 loadimage;
#X obj 98 975 alpha;
#X obj 238 1005 separator;
#X obj 238 1093 rectangle 1 4;
#X obj 238 1048 colorRGB;
#X obj 238 1026 translateXYZ -1 0 0;
#X obj 378 1005 separator;
#X obj 378 1093 rectangle 1 4;
#X obj 378 1048 colorRGB;
#X obj 378 1026 translateXYZ 1 0 0;
#X obj 518 1005 separator;
#X obj 518 1048 colorRGB;
#X obj 716 1030 writesf~ 2;
#X msg 766 987 open pixel_player.wav;
#X obj 714 871 r record;
#X obj 714 901 sel 0 1;
#X obj 739 924 t b b;
#X msg 739 957 start;
#X msg 699 947 stop;
#X obj 27 905 tgl 30 0 empty empty empty 17 7 0 10 -4034 -1 -1 1 1
;
#X obj 27 852 loadbang;
#X text 69 913 gem display on/off;
#X obj 538 82 ctlin;
#X floatatom 538 104 5 0 0 0 - - -;
#X floatatom 588 101 5 0 0 0 - - -;
#X obj 69 119 maxlib/scale 0 127 0 2000;
#X obj 300 102 maxlib/scale 0 127 100 0.001;
#X floatatom 300 124 5 0 0 0 - - -;
#X obj 672 53 gemwin;
#X msg 27 874 1;
#X msg 751 63 0 \, destroy;
#X msg 673 31 dimen 1025 768 \, create \, 1;
#X msg 656 116 offset 1920 0 \, border 0 \, dimen 1024 768 \, create
\, 1;
#X obj 98 1093 rectangle 2 4;
#X floatatom 190 944 5 0 0 0 - - -;
#X obj 98 1025 translateXYZ -4 0 0;
#X obj 517 1093 rectangle 4 4;
#X obj 517 1026 translateXYZ 6 0 0;
#X obj 926 183 maxlib/scale 0 127 0 2000;
#X obj 925 161 ctlin 16;
#X obj 68 97 ctlin 0;
#X obj 79 169 maxlib/scale 0 127 0 2000;
#X obj 89 219 maxlib/scale 0 127 0 2000;
#X obj 78 148 ctlin 1;
#X obj 88 196 ctlin 2;
#X obj 99 269 maxlib/scale 0 127 0 2000;
#X obj 98 246 ctlin 3;
#X obj 108 296 ctlin 24;
#X obj 109 319 maxlib/scale 0 127 0 1;
#X obj 249 149 maxlib/scale 0 127 0 2000;
#X obj 259 199 maxlib/scale 0 127 0 2000;
#X obj 269 249 maxlib/scale 0 127 0 2000;
#X obj 279 299 maxlib/scale 0 127 0 2000;
#X obj 289 349 maxlib/scale 0 127 0 1;
#X obj 248 127 ctlin 4;
#X obj 258 178 ctlin 5;
#X obj 268 226 ctlin 6;
#X obj 278 276 ctlin 7;
#X obj 288 326 ctlin 25;
#X obj 469 149 maxlib/scale 0 127 0 2000;
#X obj 479 199 maxlib/scale 0 127 0 2000;
#X obj 489 249 maxlib/scale 0 127 0 2000;
#X obj 499 299 maxlib/scale 0 127 0 2000;
#X obj 509 349 maxlib/scale 0 127 0 1;
#X obj 468 127 ctlin 8;
#X obj 478 178 ctlin 9;
#X obj 488 226 ctlin 10;
#X obj 498 276 ctlin 11;
#X obj 506 326 ctlin 26;
#X obj 679 169 maxlib/scale 0 127 0 2000;
#X obj 689 219 maxlib/scale 0 127 0 2000;
#X obj 699 269 maxlib/scale 0 127 0 2000;
#X obj 709 319 maxlib/scale 0 127 0 2000;
#X obj 719 369 maxlib/scale 0 127 0 1;
#X obj 677 145 ctlin 12;
#X obj 688 198 ctlin 13;
#X obj 698 246 ctlin 14;
#X obj 708 296 ctlin 15;
#X obj 299 80 ctlin 30;
#X obj 716 346 ctlin 27;
#X connect 5 0 6 0;
#X connect 6 0 5 0;
#X connect 10 0 9 0;
#X connect 10 0 9 1;
#X connect 10 0 36 0;
#X connect 10 0 36 1;
#X connect 11 0 12 0;
#X connect 12 0 16 0;
#X connect 13 0 14 0;
#X connect 14 0 15 0;
#X connect 15 0 10 1;
#X connect 16 0 18 0;
#X connect 17 0 11 0;
#X connect 17 1 21 1;
#X connect 17 2 21 2;
#X connect 17 3 21 3;
#X connect 17 4 21 4;
#X connect 18 0 10 0;
#X connect 19 0 25 0;
#X connect 20 0 59 0;
#X connect 21 0 57 0;
#X connect 22 0 16 1;
#X connect 22 1 35 1;
#X connect 22 2 35 2;
#X connect 22 3 35 3;
#X connect 22 4 35 4;
#X connect 23 0 11 1;
#X connect 23 1 28 1;
#X connect 23 2 28 2;
#X connect 23 3 28 3;
#X connect 23 4 28 4;
#X connect 24 0 12 1;
#X connect 24 1 32 1;
#X connect 24 2 32 2;
#X connect 24 3 32 3;
#X connect 24 4 32 4;
#X connect 25 0 20 0;
#X connect 25 0 26 0;
#X connect 25 0 30 0;
#X connect 25 0 34 0;
#X connect 26 0 29 0;
#X connect 28 0 27 0;
#X connect 29 0 28 0;
#X connect 30 0 33 0;
#X connect 32 0 31 0;
#X connect 33 0 32 0;
#X connect 34 0 61 0;
#X connect 35 0 60 0;
#X connect 37 0 36 0;
#X connect 38 0 39 0;
#X connect 39 0 42 0;
#X connect 39 1 40 0;
#X connect 40 0 41 0;
#X connect 40 1 37 0;
#X connect 41 0 36 0;
#X connect 42 0 36 0;
#X connect 43 0 19 0;
#X connect 44 0 53 0;
#X connect 46 0 47 0;
#X connect 46 1 48 0;
#X connect 49 0 17 1;
#X connect 50 0 51 0;
#X connect 51 0 3 1;
#X connect 53 0 43 0;
#X connect 54 0 52 0;
#X connect 55 0 52 0;
#X connect 56 0 52 0;
#X connect 58 0 59 1;
#X connect 59 0 21 0;
#X connect 61 0 35 0;
#X connect 63 0 62 0;
#X connect 64 0 49 0;
#X connect 65 0 17 2;
#X connect 66 0 17 3;
#X connect 67 0 65 0;
#X connect 68 0 66 0;
#X connect 69 0 17 4;
#X connect 70 0 69 0;
#X connect 71 0 72 0;
#X connect 72 0 17 8;
#X connect 73 0 23 1;
#X connect 74 0 23 2;
#X connect 75 0 23 3;
#X connect 76 0 23 4;
#X connect 77 0 23 8;
#X connect 78 0 73 0;
#X connect 79 0 74 0;
#X connect 80 0 75 0;
#X connect 81 0 76 0;
#X connect 82 0 77 0;
#X connect 83 0 24 1;
#X connect 84 0 24 2;
#X connect 85 0 24 3;
#X connect 86 0 24 4;
#X connect 87 0 24 8;
#X connect 88 0 83 0;
#X connect 89 0 84 0;
#X connect 90 0 85 0;
#X connect 91 0 86 0;
#X connect 92 0 87 0;
#X connect 93 0 22 1;
#X connect 94 0 22 2;
#X connect 95 0 22 3;
#X connect 96 0 22 4;
#X connect 97 0 22 8;
#X connect 98 0 93 0;
#X connect 99 0 94 0;
#X connect 100 0 95 0;
#X connect 101 0 96 0;
#X connect 102 0 50 0;
#X connect 103 0 97 0;
