#N canvas 970 82 931 998 10;
#X obj 33 721 cnv 15 165 55 empty empty empty 20 12 0 14 -257985 -66577
0;
#X text 42 746 http://hellocatfood.com;
#N canvas 761 82 931 998 pixelinfo 0;
#X obj 29 112 f;
#X obj 69 112 + 1;
#X obj 29 184 %;
#X floatatom 29 226 5 0 0 0 - - -;
#X floatatom 129 266 5 0 0 0 - - -;
#X obj 129 112 f;
#X obj 129 184 %;
#X obj 29 366 /;
#X obj 44 346 r w;
#X obj 129 366 /;
#X obj 144 346 r h;
#X obj 29 388 s x;
#X obj 129 388 s y;
#X obj 44 154 r w;
#X obj 144 154 r h;
#X obj 29 62 r bang;
#X obj 59 308 sel 0;
#X obj 169 112 + 1;
#X msg 129 92 0;
#X msg 29 92 0;
#X text 163 266 curren line;
#X text 63 226 curren column;
#X obj 129 32 t b b;
#X obj 129 12 r initbang;
#X obj 309 12 r r;
#X obj 337 52 r g;
#X obj 366 92 r b;
#X msg 309 162 color \$1 \$2 \$3;
#X obj 309 142 pack f f f;
#X obj 309 184 s pixelcolor;
#X obj 400 300 cnv 15 150 130 empty empty empty 20 12 0 14 -262130
-66577 0;
#X floatatom 409 306 5 0 0 0 - - -;
#X obj 409 366 nbx 5 14 -1e+37 1e+37 0 0 empty empty empty 0 -8 0 10
-258113 -1 -1 0 256;
#X obj 409 386 nbx 5 14 -1e+37 1e+37 0 0 empty empty empty 0 -8 0 10
-4034 -1 -1 0 256;
#X obj 409 406 nbx 5 14 -1e+37 1e+37 0 0 empty empty empty 0 -8 0 10
-4032 -1 -1 0 256;
#X floatatom 409 336 5 0 0 0 - - -;
#X text 467 364 red value;
#X text 467 384 green value;
#X text 467 404 blue value;
#X text 443 336 current line;
#X text 443 306 current column;
#X connect 0 0 1 0;
#X connect 0 0 2 0;
#X connect 1 0 0 1;
#X connect 2 0 3 0;
#X connect 2 0 16 0;
#X connect 3 0 7 0;
#X connect 3 0 31 0;
#X connect 4 0 9 0;
#X connect 4 0 35 0;
#X connect 5 0 6 0;
#X connect 5 0 17 0;
#X connect 6 0 4 0;
#X connect 7 0 11 0;
#X connect 8 0 7 1;
#X connect 9 0 12 0;
#X connect 10 0 9 1;
#X connect 13 0 2 1;
#X connect 14 0 6 1;
#X connect 15 0 0 0;
#X connect 16 0 5 0;
#X connect 17 0 5 1;
#X connect 18 0 5 0;
#X connect 19 0 0 0;
#X connect 23 0 22 0;
#X connect 24 0 28 0;
#X connect 24 0 32 0;
#X connect 25 0 28 1;
#X connect 25 0 33 0;
#X connect 26 0 28 2;
#X connect 26 0 34 0;
#X connect 27 0 29 0;
#X connect 28 0 27 0;
#X coords 0 -1 1 1 150 130 1 400 300;
#X restore 32 569 pd pixelinfo;
#N canvas 1085 294 450 300 start 0;
#X obj 150 20 cnv 15 120 90 empty empty empty 20 12 0 14 -260097 -66577
0;
#X obj 156 27 tgl 30 0 empty empty empty 17 7 0 10 -4034 -1 -1 1 1
;
#X floatatom 43 107 5 0 0 0 - - -;
#X obj 16 149 s bang;
#X obj 16 127 metro;
#X obj 156 69 knob 32 32 50 0.001 0 0 empty empty empty 0 -8 0 8 -262144
-262144 -1 1900 1;
#X msg 16 199 \; pd dsp 1;
#X obj 16 179 loadbang;
#X text 194 32 start;
#X text 197 72 speed;
#X connect 1 0 4 0;
#X connect 2 0 4 1;
#X connect 4 0 3 0;
#X connect 5 0 2 0;
#X connect 7 0 6 0;
#X coords 0 -1 1 1 120 90 1 150 20;
#X restore 294 16 pd start;
#X obj 183 16 cnv 15 100 60 empty empty empty 20 12 0 14 -228856 -66577
0;
#N canvas 57 87 450 300 gemwin 0;
#X obj 132 136 gemwin;
#X obj 67 89 outlet;
#X obj 67 10 inlet;
#X obj 67 41 route create;
#X msg 67 70 set destroy;
#X msg 142 68 set create;
#X msg 132 112 create \, 1;
#X msg 198 112 destroy;
#X obj 251 112 r pixelcolor;
#X connect 2 0 3 0;
#X connect 3 0 4 0;
#X connect 3 0 6 0;
#X connect 3 1 5 0;
#X connect 3 1 7 0;
#X connect 4 0 1 0;
#X connect 5 0 1 0;
#X connect 6 0 0 0;
#X connect 7 0 0 0;
#X connect 8 0 0 0;
#X restore 188 55 pd gemwin;
#X msg 188 36 destroy;
#X text 184 15 create window;
#X text 42 727 antonio roberts 2014;
#X obj 45 120 loadimage;
#X obj 393 708 dac~;
#X obj 393 678 *~ 0.1;
#X obj 304 626 +~;
#X obj 304 648 +~;
#X obj 553 721 cnv 15 100 60 empty empty empty 20 12 0 14 -233017 -66577
0;
#X obj 549 667 metro;
#X floatatom 503 638 5 0 0 0 - aanaa-#0 -;
#X obj 246 120 loadimage;
#X obj 447 120 loadimage;
#X connect 5 0 6 0;
#X connect 6 0 5 0;
#X connect 9 0 12 0;
#X connect 11 0 10 0;
#X connect 11 0 10 1;
#X connect 12 0 13 0;
#X connect 13 0 11 0;
#X connect 17 0 12 1;
#X connect 18 0 13 1;
