#N canvas 57 82 931 998 10;
#X obj 445 20 cnv 15 165 55 empty empty empty 20 12 0 14 -257985 -66577
0;
#X text 454 45 http://hellocatfood.com;
#N canvas 758 59 931 998 pixelinfo 0;
#X obj 29 112 f;
#X obj 69 112 + 1;
#X obj 29 184 %;
#X floatatom 29 226 5 0 0 0 - - -;
#X floatatom 129 266 5 0 0 0 - - -;
#X obj 129 112 f;
#X obj 129 184 %;
#X obj 29 366 /;
#X obj 44 346 r w;
#X obj 129 366 /;
#X obj 144 346 r h;
#X obj 29 388 s x;
#X obj 129 388 s y;
#X obj 44 154 r w;
#X obj 144 154 r h;
#X obj 29 62 r bang;
#X obj 59 308 sel 0;
#X obj 169 112 + 1;
#X msg 129 92 0;
#X msg 29 92 0;
#X text 163 266 curren line;
#X text 63 226 curren column;
#X obj 400 300 cnv 15 150 60 empty empty empty 20 12 0 14 -262130 -66577
0;
#X floatatom 409 306 5 0 0 0 - - -;
#X floatatom 409 336 5 0 0 0 - - -;
#X text 443 336 current line;
#X text 443 306 current column;
#X connect 0 0 1 0;
#X connect 0 0 2 0;
#X connect 1 0 0 1;
#X connect 2 0 3 0;
#X connect 2 0 16 0;
#X connect 3 0 7 0;
#X connect 3 0 23 0;
#X connect 4 0 9 0;
#X connect 4 0 24 0;
#X connect 5 0 6 0;
#X connect 5 0 17 0;
#X connect 6 0 4 0;
#X connect 7 0 11 0;
#X connect 8 0 7 1;
#X connect 9 0 12 0;
#X connect 10 0 9 1;
#X connect 13 0 2 1;
#X connect 14 0 6 1;
#X connect 15 0 0 0;
#X connect 16 0 5 0;
#X connect 17 0 5 1;
#X connect 18 0 5 0;
#X connect 19 0 0 0;
#X coords 0 -1 1 1 150 60 1 400 300;
#X restore 284 20 pd pixelinfo;
#N canvas 1049 354 450 300 start 0;
#X obj 150 20 cnv 15 130 90 empty empty empty 20 12 0 14 -260097 -66577
0;
#X obj 156 27 tgl 30 0 empty empty start 40 15 0 10 -4034 -1 -1 10.2371
10.2371;
#X floatatom 43 154 5 0 0 0 - - -;
#X obj 16 196 s bang;
#X obj 16 174 metro;
#X obj 157 69 knob 32 32 100 0.001 0 0 empty empty empty 0 -8 0 8 -262144
-262144 -1 2700 1;
#X msg 16 246 \; pd dsp 1;
#X obj 16 226 loadbang;
#X text 197 62 speed;
#X floatatom 198 88 5 0 0 0 - - -;
#X obj 286 59 sel 1 0;
#X msg 89 245 100;
#X obj 50 15 inlet start;
#X obj 60 45 inlet speed;
#X msg 305 101 label start;
#X msg 286 80 label stop;
#X connect 1 0 10 0;
#X connect 1 0 4 0;
#X connect 2 0 4 1;
#X connect 4 0 3 0;
#X connect 5 0 2 0;
#X connect 5 0 9 0;
#X connect 7 0 6 0;
#X connect 7 0 11 0;
#X connect 10 0 15 0;
#X connect 10 1 14 0;
#X connect 11 0 5 0;
#X connect 12 0 1 0;
#X connect 13 0 5 0;
#X connect 14 0 1 0;
#X connect 15 0 1 0;
#X coords 0 -1 1 1 130 90 1 150 20;
#X restore 156 20 pd start;
#X obj 45 20 cnv 15 100 60 empty empty empty 20 12 0 14 -228856 -66577
0;
#N canvas 57 87 450 300 gemwin 0;
#X obj 132 136 gemwin;
#X obj 67 89 outlet;
#X obj 67 10 inlet;
#X obj 67 41 route create;
#X msg 67 70 set destroy;
#X msg 142 68 set create;
#X msg 132 112 create \, 1;
#X msg 198 112 destroy;
#X obj 251 112 r pixelcolor;
#X connect 2 0 3 0;
#X connect 3 0 4 0;
#X connect 3 0 6 0;
#X connect 3 1 5 0;
#X connect 3 1 7 0;
#X connect 4 0 1 0;
#X connect 5 0 1 0;
#X connect 6 0 0 0;
#X connect 7 0 0 0;
#X connect 8 0 0 0;
#X restore 50 59 pd gemwin;
#X msg 50 40 destroy;
#X text 46 19 create window;
#X text 454 26 antonio roberts 2014;
#X obj 497 629 hsl 128 30 0 1 0 0 empty empty empty -2 -8 0 10 -260097
-1 -1 12700 1;
#X obj 252 657 tgl 30 0 onoff empty empty 17 7 0 10 -4034 -1 -1 1 1
;
#X obj 252 610 loadbang;
#X text 294 665 gem display on/off;
#X obj 978 2 ctlin;
#X floatatom 978 24 5 0 0 0 - - -;
#X floatatom 1028 21 5 0 0 0 - - -;
#X msg 252 632 1;
#N canvas 601 720 450 300 volume 0;
#X obj 75 210 dac~;
#X obj 75 180 *~ 0.1;
#X obj 74 96 +~;
#X obj 74 118 +~;
#X msg 108 129 \$1 30;
#X obj 108 151 line;
#X obj 74 140 +~;
#X obj 75 160 /~ 4;
#X obj 8 59 inlet~;
#X obj 58 59 inlet~;
#X obj 108 59 inlet~;
#X obj 158 59 inlet~;
#X obj 248 59 inlet;
#X connect 1 0 0 0;
#X connect 1 0 0 1;
#X connect 2 0 3 0;
#X connect 3 0 6 0;
#X connect 4 0 5 0;
#X connect 5 0 1 1;
#X connect 6 0 7 0;
#X connect 7 0 1 0;
#X connect 8 0 2 0;
#X connect 9 0 2 1;
#X connect 10 0 3 1;
#X connect 11 0 6 1;
#X connect 12 0 4 0;
#X restore 442 670 pd volume;
#N canvas 617 526 450 300 rectangle1 0;
#X obj 28 33 gemhead;
#X obj 28 85 separator;
#X obj 28 248 colorRGB;
#X obj 28 55 alpha;
#X obj 39 148 inlet;
#X obj 50 168 inlet;
#X obj 61 188 inlet;
#X obj 73 208 inlet;
#X obj 28 293 rectangle 1 4;
#X obj 28 13 r onoff;
#X obj 28 105 translateXYZ -3 0 0;
#X connect 0 0 3 0;
#X connect 1 0 10 0;
#X connect 2 0 8 0;
#X connect 3 0 1 0;
#X connect 4 0 2 1;
#X connect 5 0 2 2;
#X connect 6 0 2 3;
#X connect 7 0 2 4;
#X connect 9 0 0 0;
#X connect 10 0 2 0;
#X restore 93 576 pd rectangle1;
#N canvas 1022 128 450 300 rectangle2 0;
#X obj 28 33 gemhead;
#X obj 28 85 separator;
#X obj 28 248 colorRGB;
#X obj 28 55 alpha;
#X obj 39 148 inlet;
#X obj 50 168 inlet;
#X obj 61 188 inlet;
#X obj 73 208 inlet;
#X obj 28 293 rectangle 1 4;
#X obj 28 13 r onoff;
#X obj 28 105 translateXYZ -1 0 0;
#X connect 0 0 3 0;
#X connect 1 0 10 0;
#X connect 2 0 8 0;
#X connect 3 0 1 0;
#X connect 4 0 2 1;
#X connect 5 0 2 2;
#X connect 6 0 2 3;
#X connect 7 0 2 4;
#X connect 9 0 0 0;
#X connect 10 0 2 0;
#X restore 304 576 pd rectangle2;
#N canvas 1487 159 450 300 rectangle3 0;
#X obj 28 33 gemhead;
#X obj 28 85 separator;
#X obj 28 248 colorRGB;
#X obj 28 55 alpha;
#X obj 39 148 inlet;
#X obj 50 168 inlet;
#X obj 61 188 inlet;
#X obj 73 208 inlet;
#X obj 28 293 rectangle 1 4;
#X obj 28 13 r onoff;
#X obj 28 105 translateXYZ 1 0 0;
#X connect 0 0 3 0;
#X connect 1 0 10 0;
#X connect 2 0 8 0;
#X connect 3 0 1 0;
#X connect 4 0 2 1;
#X connect 5 0 2 2;
#X connect 6 0 2 3;
#X connect 7 0 2 4;
#X connect 9 0 0 0;
#X connect 10 0 2 0;
#X restore 515 576 pd rectangle3;
#N canvas 1323 586 450 300 rectangle4 0;
#X obj 28 33 gemhead;
#X obj 28 85 separator;
#X obj 28 248 colorRGB;
#X obj 28 55 alpha;
#X obj 39 148 inlet;
#X obj 50 168 inlet;
#X obj 61 188 inlet;
#X obj 73 208 inlet;
#X obj 28 293 rectangle 1 4;
#X obj 28 13 r onoff;
#X obj 28 105 translateXYZ 3 0 0;
#X connect 0 0 3 0;
#X connect 1 0 10 0;
#X connect 2 0 8 0;
#X connect 3 0 1 0;
#X connect 4 0 2 1;
#X connect 5 0 2 2;
#X connect 6 0 2 3;
#X connect 7 0 2 4;
#X connect 9 0 0 0;
#X connect 10 0 2 0;
#X restore 726 576 pd rectangle4;
#X obj 256 140 loadimage;
#X obj 45 140 loadimage;
#X obj 678 140 loadimage;
#X obj 467 140 loadimage;
#X connect 5 0 6 0;
#X connect 6 0 5 0;
#X connect 9 0 17 4;
#X connect 11 0 16 0;
#X connect 13 0 14 0;
#X connect 13 1 15 0;
#X connect 16 0 10 0;
#X connect 22 0 17 1;
#X connect 22 1 19 0;
#X connect 22 2 19 1;
#X connect 22 3 19 2;
#X connect 22 4 19 3;
#X connect 23 0 17 0;
#X connect 23 1 18 0;
#X connect 23 2 18 1;
#X connect 23 3 18 2;
#X connect 23 4 18 3;
#X connect 24 0 17 3;
#X connect 24 1 21 0;
#X connect 24 2 21 1;
#X connect 24 3 21 2;
#X connect 24 4 21 3;
#X connect 25 0 17 2;
#X connect 25 1 20 0;
#X connect 25 2 20 1;
#X connect 25 3 20 2;
#X connect 25 4 20 3;
