#N canvas 979 97 931 998 10;
#X declare -path /home/hellocatfood/pd-externals/bb_filebrowser;
#X obj 445 20 cnv 15 165 55 empty empty empty 20 12 0 14 -257985 -66577
0;
#X text 454 45 http://hellocatfood.com;
#N canvas 758 59 931 998 pixelinfo 0;
#X obj 29 112 f;
#X obj 69 112 + 1;
#X obj 29 184 %;
#X floatatom 29 226 5 0 0 0 - - -;
#X floatatom 129 266 5 0 0 0 - - -;
#X obj 129 112 f;
#X obj 129 184 %;
#X obj 29 366 /;
#X obj 44 346 r w;
#X obj 129 366 /;
#X obj 144 346 r h;
#X obj 29 388 s x;
#X obj 129 388 s y;
#X obj 44 154 r w;
#X obj 144 154 r h;
#X obj 29 62 r bang;
#X obj 59 308 sel 0;
#X obj 169 112 + 1;
#X msg 129 92 0;
#X msg 29 92 0;
#X text 163 266 curren line;
#X text 63 226 curren column;
#X obj 400 300 cnv 15 150 60 empty empty empty 20 12 0 14 -262130 -66577
0;
#X floatatom 409 306 5 0 0 0 - - -;
#X floatatom 409 336 5 0 0 0 - - -;
#X text 443 336 current line;
#X text 443 306 current column;
#X connect 0 0 1 0;
#X connect 0 0 2 0;
#X connect 1 0 0 1;
#X connect 2 0 3 0;
#X connect 2 0 16 0;
#X connect 3 0 7 0;
#X connect 3 0 23 0;
#X connect 4 0 9 0;
#X connect 4 0 24 0;
#X connect 5 0 6 0;
#X connect 5 0 17 0;
#X connect 6 0 4 0;
#X connect 7 0 11 0;
#X connect 8 0 7 1;
#X connect 9 0 12 0;
#X connect 10 0 9 1;
#X connect 13 0 2 1;
#X connect 14 0 6 1;
#X connect 15 0 0 0;
#X connect 16 0 5 0;
#X connect 17 0 5 1;
#X connect 18 0 5 0;
#X connect 19 0 0 0;
#X coords 0 -1 1 1 150 60 1 400 300;
#X restore 284 20 pd pixelinfo;
#N canvas 1058 339 450 300 start 0;
#X obj 150 23 cnv 15 130 90 empty empty empty 20 12 0 14 -260097 -66577
0;
#X obj 156 30 tgl 30 0 empty empty stop+save 40 15 0 10 -4034 -1 -1
1 1;
#X floatatom 43 157 5 0 0 0 - - -;
#X obj 16 199 s bang;
#X obj 16 177 metro;
#X obj 157 72 knob 32 32 100 0.001 0 0 empty empty empty 0 -8 0 8 -262144
-262144 -1 3000 1;
#X msg 16 249 \; pd dsp 1;
#X obj 16 229 loadbang;
#X text 197 65 speed;
#X obj 113 137 s record;
#X floatatom 198 91 5 0 0 0 - - -;
#X obj 286 62 sel 1 0;
#X msg 286 84 label stop+save;
#X msg 305 104 label start+record;
#X msg 89 248 100;
#X obj 50 18 inlet start;
#X obj 60 48 inlet speed;
#X obj 86 117 t f f;
#X connect 1 0 11 0;
#X connect 1 0 17 0;
#X connect 2 0 4 1;
#X connect 4 0 3 0;
#X connect 5 0 2 0;
#X connect 5 0 10 0;
#X connect 7 0 6 0;
#X connect 7 0 14 0;
#X connect 11 0 12 0;
#X connect 11 1 13 0;
#X connect 12 0 1 0;
#X connect 13 0 1 0;
#X connect 14 0 5 0;
#X connect 15 0 1 0;
#X connect 16 0 5 0;
#X connect 17 0 4 0;
#X connect 17 1 9 0;
#X coords 0 -1 1 1 130 93 1 150 20;
#X restore 156 20 pd start;
#X obj 45 20 cnv 15 100 60 empty empty empty 20 12 0 14 -228856 -66577
0;
#N canvas 57 87 450 300 gemwin 0;
#X obj 132 136 gemwin;
#X obj 67 89 outlet;
#X obj 67 10 inlet;
#X obj 67 41 route create;
#X msg 67 70 set destroy;
#X msg 142 68 set create;
#X msg 132 112 create \, 1;
#X msg 198 112 destroy;
#X obj 251 112 r pixelcolor;
#X connect 2 0 3 0;
#X connect 3 0 4 0;
#X connect 3 0 6 0;
#X connect 3 1 5 0;
#X connect 3 1 7 0;
#X connect 4 0 1 0;
#X connect 5 0 1 0;
#X connect 6 0 0 0;
#X connect 7 0 0 0;
#X connect 8 0 0 0;
#X restore 50 59 pd gemwin;
#X msg 50 40 destroy;
#X text 46 19 create window;
#X text 454 26 antonio roberts 2014;
#X obj 305 960 dac~;
#X obj 305 930 *~ 0.1;
#X obj 304 846 +~;
#X obj 304 868 +~;
#X obj 333 844 hsl 128 30 0 1 0 0 empty empty empty -2 -8 0 10 -260097
-1 -1 0 1;
#X msg 330 879 \$1 30;
#X obj 330 901 line;
#X obj 304 890 +~;
#X obj 45 400 loadimage;
#X obj 305 910 /~ 4;
#X obj 98 953 gemhead;
#X obj 98 1005 separator;
#X obj 98 1048 colorRGB;
#X obj 98 975 alpha;
#X obj 238 1005 separator;
#X obj 238 1093 rectangle 1 4;
#X obj 238 1048 colorRGB;
#X obj 238 1026 translateXYZ -1 0 0;
#X obj 378 1005 separator;
#X obj 378 1093 rectangle 1 4;
#X obj 378 1048 colorRGB;
#X obj 378 1026 translateXYZ 1 0 0;
#X obj 518 1005 separator;
#X obj 518 1048 colorRGB;
#X obj 716 1030 writesf~ 2;
#X msg 766 987 open pixel_player.wav;
#X obj 714 871 r record;
#X obj 714 901 sel 0 1;
#X obj 739 924 t b b;
#X msg 739 957 start;
#X msg 699 947 stop;
#X obj 27 905 tgl 30 0 empty empty empty 17 7 0 10 -4034 -1 -1 1 1
;
#X obj 27 852 loadbang;
#X text 69 913 gem display on/off;
#X obj 978 2 ctlin;
#X floatatom 978 24 5 0 0 0 - - -;
#X floatatom 1028 21 5 0 0 0 - - -;
#X obj 672 53 gemwin;
#X msg 27 874 1;
#X msg 751 63 0 \, destroy;
#X msg 673 31 dimen 1025 768 \, create \, 1;
#X msg 656 116 offset 1920 0 \, border 0 \, dimen 1024 768 \, create
\, 1;
#X obj 98 1093 rectangle 2 4;
#X obj 98 1025 translateXYZ -4 0 0;
#X obj 517 1093 rectangle 4 4;
#X obj 517 1026 translateXYZ 6 0 0;
#X obj 617 140 path /home/hellocatfood/pd-externals/bb_filebrowser
;
#X obj 45 230 bb_filebrowser;
#X obj 45 190 bng 15 250 50 0 empty empty empty 17 7 0 10 -262144 -1
-1;
#X obj 678 400 loadimage;
#X obj 256 400 loadimage;
#X obj 467 400 loadimage;
#N canvas 430 316 450 300 loopfile 1;
#X msg 73 93 dec;
#X msg 143 93 inc;
#X obj 73 167 counter;
#X msg 213 93 updown;
#X msg 263 93 min 0;
#X msg 313 93 max \$1;
#X obj 213 53 loadbang;
#X floatatom 73 189 5 0 0 0 - - -;
#X obj 73 73 inlet;
#X obj 143 73 inlet;
#X obj 73 210 outlet;
#X obj 313 41 inlet;
#X obj 313 63 - 1;
#X connect 0 0 2 0;
#X connect 1 0 2 0;
#X connect 2 0 7 0;
#X connect 3 0 2 0;
#X connect 4 0 2 0;
#X connect 5 0 2 0;
#X connect 6 0 3 0;
#X connect 6 0 4 0;
#X connect 7 0 10 0;
#X connect 8 0 0 0;
#X connect 9 0 1 0;
#X connect 11 0 12 0;
#X connect 12 0 5 0;
#X restore 155 210 pd loopfile;
#N canvas 350 276 450 300 load 0;
#X msg 28 141 filter jpg png gif bmp;
#X obj 28 51 tof/folderpanel;
#X msg 55 93 load \$1;
#X obj 28 73 t b s;
#X obj 28 163 outlet;
#X obj 55 115 outlet;
#X obj 28 31 inlet;
#X connect 0 0 4 0;
#X connect 1 0 3 0;
#X connect 2 0 5 0;
#X connect 3 0 0 0;
#X connect 3 1 2 0;
#X connect 6 0 1 0;
#X restore 45 210 pd load;
#X obj 155 180 bng 15 250 50 0 empty empty empty 17 7 0 10 -262144
-1 -1;
#X obj 186 180 bng 15 250 50 0 empty empty empty 17 7 0 10 -262144
-1 -1;
#X connect 5 0 6 0;
#X connect 6 0 5 0;
#X connect 10 0 9 0;
#X connect 10 0 9 1;
#X connect 10 0 33 0;
#X connect 10 0 33 1;
#X connect 11 0 12 0;
#X connect 12 0 16 0;
#X connect 13 0 14 0;
#X connect 14 0 15 0;
#X connect 15 0 10 1;
#X connect 16 0 18 0;
#X connect 17 0 11 0;
#X connect 17 1 21 1;
#X connect 17 2 21 2;
#X connect 17 3 21 3;
#X connect 17 4 21 4;
#X connect 18 0 10 0;
#X connect 19 0 22 0;
#X connect 20 0 52 0;
#X connect 21 0 51 0;
#X connect 22 0 20 0;
#X connect 22 0 23 0;
#X connect 22 0 27 0;
#X connect 22 0 31 0;
#X connect 23 0 26 0;
#X connect 25 0 24 0;
#X connect 26 0 25 0;
#X connect 27 0 30 0;
#X connect 29 0 28 0;
#X connect 30 0 29 0;
#X connect 31 0 54 0;
#X connect 32 0 53 0;
#X connect 35 0 36 0;
#X connect 36 0 39 0;
#X connect 36 1 37 0;
#X connect 37 0 38 0;
#X connect 37 1 34 0;
#X connect 40 0 19 0;
#X connect 41 0 47 0;
#X connect 43 0 44 0;
#X connect 43 1 45 0;
#X connect 47 0 40 0;
#X connect 48 0 46 0;
#X connect 49 0 46 0;
#X connect 50 0 46 0;
#X connect 52 0 21 0;
#X connect 54 0 32 0;
#X connect 56 0 17 0;
#X connect 56 1 61 2;
#X connect 57 0 62 0;
#X connect 58 0 16 1;
#X connect 58 1 32 1;
#X connect 58 2 32 2;
#X connect 58 3 32 3;
#X connect 58 4 32 4;
#X connect 59 0 11 1;
#X connect 59 1 25 1;
#X connect 59 2 25 2;
#X connect 59 3 25 3;
#X connect 59 4 25 4;
#X connect 60 0 12 1;
#X connect 60 1 29 1;
#X connect 60 2 29 2;
#X connect 60 3 29 3;
#X connect 60 4 29 4;
#X connect 61 0 56 0;
#X connect 62 0 56 0;
#X connect 62 1 56 0;
#X connect 63 0 61 0;
#X connect 64 0 61 1;
