#N canvas 271 82 931 998 10;
#X obj 445 20 cnv 15 165 55 empty empty empty 20 12 0 14 -257985 -66577
0;
#X text 454 45 http://hellocatfood.com;
#N canvas 758 59 931 998 pixelinfo 0;
#X obj 29 112 f;
#X obj 69 112 + 1;
#X obj 29 184 %;
#X floatatom 29 226 5 0 0 0 - - -;
#X floatatom 129 266 5 0 0 0 - - -;
#X obj 129 112 f;
#X obj 129 184 %;
#X obj 29 366 /;
#X obj 44 346 r w;
#X obj 129 366 /;
#X obj 144 346 r h;
#X obj 29 388 s x;
#X obj 129 388 s y;
#X obj 44 154 r w;
#X obj 144 154 r h;
#X obj 29 62 r bang;
#X obj 59 308 sel 0;
#X obj 169 112 + 1;
#X msg 129 92 0;
#X msg 29 92 0;
#X text 163 266 curren line;
#X text 63 226 curren column;
#X obj 400 300 cnv 15 150 60 empty empty empty 20 12 0 14 -262130 -66577
0;
#X floatatom 409 306 5 0 0 0 - - -;
#X floatatom 409 336 5 0 0 0 - - -;
#X text 443 336 current line;
#X text 443 306 current column;
#X connect 0 0 1 0;
#X connect 0 0 2 0;
#X connect 1 0 0 1;
#X connect 2 0 3 0;
#X connect 2 0 16 0;
#X connect 3 0 7 0;
#X connect 3 0 23 0;
#X connect 4 0 9 0;
#X connect 4 0 24 0;
#X connect 5 0 6 0;
#X connect 5 0 17 0;
#X connect 6 0 4 0;
#X connect 7 0 11 0;
#X connect 8 0 7 1;
#X connect 9 0 12 0;
#X connect 10 0 9 1;
#X connect 13 0 2 1;
#X connect 14 0 6 1;
#X connect 15 0 0 0;
#X connect 16 0 5 0;
#X connect 17 0 5 1;
#X connect 18 0 5 0;
#X connect 19 0 0 0;
#X coords 0 -1 1 1 150 60 1 400 300;
#X restore 284 20 pd pixelinfo;
#N canvas 1082 299 450 300 start 0;
#X obj 150 20 cnv 15 120 90 empty empty empty 20 12 0 14 -260097 -66577
0;
#X obj 156 27 tgl 30 0 empty empty empty 17 7 0 10 -4034 -1 -1 1 1
;
#X floatatom 43 107 5 0 0 0 - - -;
#X obj 16 149 s bang;
#X obj 16 127 metro;
#X obj 156 69 knob 32 32 50 0.001 0 0 empty empty empty 0 -8 0 8 -262144
-262144 -1 2100 1;
#X msg 16 199 \; pd dsp 1;
#X obj 16 179 loadbang;
#X text 194 32 start;
#X text 197 72 speed;
#X connect 1 0 4 0;
#X connect 2 0 4 1;
#X connect 4 0 3 0;
#X connect 5 0 2 0;
#X connect 7 0 6 0;
#X coords 0 -1 1 1 120 90 1 150 20;
#X restore 156 20 pd start;
#X obj 45 20 cnv 15 100 60 empty empty empty 20 12 0 14 -228856 -66577
0;
#N canvas 57 87 450 300 gemwin 0;
#X obj 132 136 gemwin;
#X obj 67 89 outlet;
#X obj 67 10 inlet;
#X obj 67 41 route create;
#X msg 67 70 set destroy;
#X msg 142 68 set create;
#X msg 132 112 create \, 1;
#X msg 198 112 destroy;
#X obj 251 112 r pixelcolor;
#X connect 2 0 3 0;
#X connect 3 0 4 0;
#X connect 3 0 6 0;
#X connect 3 1 5 0;
#X connect 3 1 7 0;
#X connect 4 0 1 0;
#X connect 5 0 1 0;
#X connect 6 0 0 0;
#X connect 7 0 0 0;
#X connect 8 0 0 0;
#X restore 50 59 pd gemwin;
#X msg 50 40 destroy;
#X text 46 19 create window;
#X text 454 26 antonio roberts 2014;
#X obj 433 718 dac~;
#X obj 433 688 *~ 0.1;
#X obj 304 626 +~;
#X obj 304 648 +~;
#X obj 648 120 loadimage;
#X obj 461 617 hsl 128 15 0 1 0 0 empty empty empty -2 -8 0 10 -262144
-1 -1 10000 1;
#X msg 458 637 \$1 30;
#X obj 458 659 line;
#X obj 304 670 +~;
#X obj 45 120 loadimage;
#X obj 246 120 loadimage;
#X obj 447 120 loadimage;
#X obj 374 673 clip~ 0 1;
#X obj 205 678 env~;
#X floatatom 205 700 5 0 0 0 - - -;
#X obj 215 728 env~;
#X floatatom 215 750 5 0 0 0 - - -;
#X obj 265 738 env~;
#X floatatom 265 760 5 0 0 0 - - -;
#X obj 355 748 env~;
#X floatatom 355 770 5 0 0 0 - - -;
#X obj 492 755 env~;
#X floatatom 492 777 5 0 0 0 - - -;
#X connect 5 0 6 0;
#X connect 6 0 5 0;
#X connect 10 0 9 0;
#X connect 10 0 9 1;
#X connect 10 0 30 0;
#X connect 11 0 12 0;
#X connect 11 0 22 0;
#X connect 12 0 17 0;
#X connect 12 0 24 0;
#X connect 13 0 17 1;
#X connect 14 0 15 0;
#X connect 15 0 16 0;
#X connect 16 0 10 1;
#X connect 17 0 26 0;
#X connect 17 0 10 0;
#X connect 18 0 11 0;
#X connect 19 0 11 1;
#X connect 20 0 12 1;
#X connect 21 0 10 0;
#X connect 21 0 28 0;
#X connect 22 0 23 0;
#X connect 24 0 25 0;
#X connect 26 0 27 0;
#X connect 28 0 29 0;
#X connect 30 0 31 0;
